<svg xmlns="http://www.w3.org/2000/svg" version="1.1" xmlns:xlink="http://www.w3.org/1999/xlink" xmlns:svgjs="http://svgjs.dev/svgjs" width="2000" height="378" viewBox="0 0 2000 378"><g transform="matrix(1,0,0,1,-1.2121212121212466,-0.1887982924226037)"><svg viewBox="0 0 396 75" data-background-color="#ffffff" preserveAspectRatio="xMidYMid meet" height="378" width="2000" xmlns="http://www.w3.org/2000/svg" xmlns:xlink="http://www.w3.org/1999/xlink"><g id="tight-bounds" transform="matrix(1,0,0,1,0.2400000000000091,0.03745997865527784)"><svg viewBox="0 0 395.52 74.92508004268943" height="74.92508004268943" width="395.52"><g><svg viewBox="0 0 395.52 74.92508004268943" height="74.92508004268943" width="395.52"><g><svg viewBox="0 0 395.52 74.92508004268943" height="74.92508004268943" width="395.52"><g id="textblocktransform"><svg viewBox="0 0 395.52 74.92508004268943" height="74.92508004268943" width="395.52" id="textblock"><g><svg viewBox="0 0 395.52 74.92508004268943" height="74.92508004268943" width="395.52"><g transform="matrix(1,0,0,1,0,0)"><svg width="395.52" viewBox="2.1 -34.9 187.39000000000001 35.5" height="74.92508004268943" data-palette-color="#4338ca"><g class="undefined-text-0" data-fill-palette-color="primary" id="text-0"><path d="M16.5 0.6Q12.55 0.6 9.28-0.63 6-1.85 4.05-4.25 2.1-6.65 2.1-10.05L2.1-10.05 2.15-11.15 9.5-11.15 9.45-10.35Q9.45-8.15 11.4-6.85 13.35-5.55 16.85-5.55L16.85-5.55Q20.55-5.55 22.2-6.53 23.85-7.5 23.85-9.15L23.85-9.15Q23.85-10.6 22.78-11.58 21.7-12.55 20.08-13.13 18.45-13.7 15.6-14.5L15.6-14.5Q11.55-15.65 9.05-16.7 6.55-17.75 4.75-19.83 2.95-21.9 2.95-25.3L2.95-25.3Q2.95-30 6.75-32.45 10.55-34.9 16.85-34.9L16.85-34.9Q22.8-34.9 26.58-32.38 30.35-29.85 30.35-24.8L30.35-24.8 30.35-24.2 23.15-24.2 23.15-24.65Q23.15-26.55 21.43-27.65 19.7-28.75 16.75-28.75L16.75-28.75Q13.6-28.75 11.93-27.9 10.25-27.05 10.25-25.55L10.25-25.55Q10.25-24.4 11.25-23.58 12.25-22.75 13.75-22.23 15.25-21.7 18-20.95L18-20.95Q22.1-19.85 24.73-18.78 27.35-17.7 29.25-15.6 31.15-13.5 31.15-10.1L31.15-10.1Q31.15-4.6 27.23-2 23.3 0.6 16.5 0.6L16.5 0.6ZM52.8 0.6Q44.55 0.6 40-3.83 35.45-8.25 35.45-17.15L35.45-17.15Q35.45-26.05 40-30.48 44.55-34.9 52.8-34.9L52.8-34.9Q61.1-34.9 65.65-30.48 70.2-26.05 70.2-17.15L70.2-17.15Q70.2-8.25 65.65-3.83 61.1 0.6 52.8 0.6L52.8 0.6ZM52.8-5.55Q57.7-5.55 60.22-8.38 62.75-11.2 62.75-16.4L62.75-16.4 62.75-17.9Q62.75-23.1 60.22-25.93 57.7-28.75 52.8-28.75L52.8-28.75Q47.9-28.75 45.4-25.93 42.9-23.1 42.9-17.9L42.9-17.9 42.9-16.4Q42.9-11.2 45.4-8.38 47.9-5.55 52.8-5.55L52.8-5.55ZM90.95 0.6Q74.34 0.6 74.34-17.15L74.34-17.15Q74.34-26.05 78.7-30.48 83.05-34.9 90.95-34.9L90.95-34.9Q95.3-34.9 98.77-33.43 102.25-31.95 104.27-28.93 106.3-25.9 106.3-21.55L106.3-21.55 98.84-21.55Q98.84-24.9 96.7-26.83 94.55-28.75 91.09-28.75L91.09-28.75Q86.4-28.75 84.09-25.95 81.8-23.15 81.8-17.9L81.8-17.9 81.8-16.4Q81.8-5.55 91.09-5.55L91.09-5.55Q94.75-5.55 96.92-7.45 99.09-9.35 99.09-12.7L99.09-12.7 106.3-12.7Q106.3-8.3 104.3-5.33 102.3-2.35 98.84-0.88 95.4 0.6 90.95 0.6L90.95 0.6ZM111.69 0L111.69-34.3 118.94-34.3 118.94 0 111.69 0ZM140.24 0.6Q133.29 0.6 129.44-2.8 125.59-6.2 125.59-12.75L125.59-12.75 125.59-34.3 132.84-34.3 132.84-13.1Q132.84-9.4 134.77-7.48 136.69-5.55 140.24-5.55L140.24-5.55Q143.79-5.55 145.77-7.48 147.74-9.4 147.74-13.1L147.74-13.1 147.74-34.3 154.99-34.3 154.99-12.75Q154.99-6.2 151.12-2.8 147.24 0.6 140.24 0.6L140.24 0.6ZM174.84 0.6Q170.89 0.6 167.61-0.63 164.34-1.85 162.39-4.25 160.44-6.65 160.44-10.05L160.44-10.05 160.49-11.15 167.84-11.15 167.79-10.35Q167.79-8.15 169.74-6.85 171.69-5.55 175.19-5.55L175.19-5.55Q178.89-5.55 180.54-6.53 182.19-7.5 182.19-9.15L182.19-9.15Q182.19-10.6 181.11-11.58 180.04-12.55 178.41-13.13 176.79-13.7 173.94-14.5L173.94-14.5Q169.89-15.65 167.39-16.7 164.89-17.75 163.09-19.83 161.29-21.9 161.29-25.3L161.29-25.3Q161.29-30 165.09-32.45 168.89-34.9 175.19-34.9L175.19-34.9Q181.14-34.9 184.91-32.38 188.69-29.85 188.69-24.8L188.69-24.8 188.69-24.2 181.49-24.2 181.49-24.65Q181.49-26.55 179.76-27.65 178.04-28.75 175.09-28.75L175.09-28.75Q171.94-28.75 170.26-27.9 168.59-27.05 168.59-25.55L168.59-25.55Q168.59-24.4 169.59-23.58 170.59-22.75 172.09-22.23 173.59-21.7 176.34-20.95L176.34-20.95Q180.44-19.85 183.06-18.78 185.69-17.7 187.59-15.6 189.49-13.5 189.49-10.1L189.49-10.1Q189.49-4.6 185.56-2 181.64 0.6 174.84 0.6L174.84 0.6Z" fill="#4338ca" data-fill-palette-color="primary"></path></g></svg></g></svg></g></svg></g></svg></g><g></g></svg></g><defs></defs></svg><rect width="395.52" height="74.92508004268943" fill="none" stroke="none" visibility="hidden"></rect></g></svg></g></svg>